<?xml version="1.0" encoding="UTF-8"?>
<svg width="64px" height="64px" viewBox="0 0 64 64" version="1.1" xmlns="http://www.w3.org/2000/svg" xmlns:xlink="http://www.w3.org/1999/xlink">

    <title>03 Icon/64/ Time-speed-cargo</title>
    
    <g id="03-Icon/64/-Time-speed-cargo" stroke="none" stroke-width="1" fill="none" fill-rule="evenodd">
        <g id="Group" transform="translate(8.000000, 4.000000)">
            <path d="M6.1755,38.5029 C6.5665,38.1129 7.1995,38.1129 7.5895,38.5029 L7.5895,38.5029 L11.1675,42.0799 C11.4115,41.9929 11.6705,41.9369 11.9435,41.9369 C12.2165,41.9369 12.4755,41.9929 12.7185,42.0799 L12.7185,42.0799 L14.6115,40.1869 C15.0025,39.7969 15.6345,39.7969 16.0255,40.1869 C16.4165,40.5779 16.4165,41.2109 16.0255,41.6019 L16.0255,41.6019 L14.1335,43.4939 C14.2205,43.7379 14.2765,43.9969 14.2765,44.2699 C14.2765,45.5569 13.2295,46.6029 11.9435,46.6029 C10.6575,46.6029 9.6105,45.5569 9.6105,44.2699 C9.6105,43.9969 9.6665,43.7379 9.7535,43.4939 L9.7535,43.4939 L6.1755,39.9169 C5.7855,39.5269 5.7855,38.8939 6.1755,38.5029 Z M11.9435,43.9369 C11.7595,43.9369 11.6105,44.0859 11.6105,44.2699 C11.6105,44.4539 11.7595,44.6029 11.9435,44.6029 C12.1275,44.6029 12.2765,44.4539 12.2765,44.2699 C12.2765,44.0859 12.1275,43.9369 11.9435,43.9369 Z M21.6867,17.6244 C22.2397,17.6244 22.6867,18.0724 22.6867,18.6244 L22.6867,18.6244 L22.6867,29.4704 C22.6867,30.0224 22.2397,30.4704 21.6867,30.4704 C21.1337,30.4704 20.6867,30.0224 20.6867,29.4704 L20.6867,29.4704 L20.6867,18.6244 C20.6867,18.0724 21.1337,17.6244 21.6867,17.6244 Z M27.8527,17.6244 C28.4057,17.6244 28.8527,18.0724 28.8527,18.6244 L28.8527,18.6244 L28.8527,29.4704 C28.8527,30.0224 28.4057,30.4704 27.8527,30.4704 C27.2997,30.4704 26.8527,30.0224 26.8527,29.4704 L26.8527,29.4704 L26.8527,18.6244 C26.8527,18.0724 27.2997,17.6244 27.8527,17.6244 Z M34.0187,17.6244 C34.5717,17.6244 35.0187,18.0724 35.0187,18.6244 L35.0187,18.6244 L35.0187,29.4704 C35.0187,30.0224 34.5717,30.4704 34.0187,30.4704 C33.4657,30.4704 33.0187,30.0224 33.0187,29.4704 L33.0187,29.4704 L33.0187,18.6244 C33.0187,18.0724 33.4657,17.6244 34.0187,17.6244 Z M40.1847,17.6244 C40.7377,17.6244 41.1847,18.0724 41.1847,18.6244 L41.1847,18.6244 L41.1847,29.4704 C41.1847,30.0224 40.7377,30.4704 40.1847,30.4704 C39.6317,30.4704 39.1847,30.0224 39.1847,29.4704 L39.1847,29.4704 L39.1847,18.6244 C39.1847,18.0724 39.6317,17.6244 40.1847,17.6244 Z M15.5206,17.6244 C16.0736,17.6244 16.5206,18.0724 16.5206,18.6244 L16.5206,18.6244 L16.5206,26.4704 C16.5206,27.0224 16.0736,27.4704 15.5206,27.4704 C14.9676,27.4704 14.5206,27.0224 14.5206,26.4704 L14.5206,26.4704 L14.5206,18.6244 C14.5206,18.0724 14.9676,17.6244 15.5206,17.6244 Z" id="Red" fill="#E20101"></path>
            <path d="M13.9781,28.2232 C15.1221,28.2232 16.0531,29.1542 16.0531,30.2992 L16.0531,30.2992 L16.0531,30.5752 C16.0531,31.4242 15.5391,32.1542 14.8071,32.4752 L14.8071,32.4752 L14.8071,32.8732 C18.5811,33.8222 21.6291,36.5922 22.9661,40.1972 L22.9661,40.1972 L29.0141,40.1972 C29.5661,40.1972 30.0141,40.6452 30.0141,41.1972 C30.0141,41.7492 29.5661,42.1972 29.0141,42.1972 L29.0141,42.1972 L23.5141,42.1972 C23.5771,42.5492 23.6261,42.9052 23.6571,43.2672 L23.6571,43.2672 L25.6811,43.2672 C26.2331,43.2672 26.6811,43.7152 26.6811,44.2672 C26.6811,44.8192 26.2331,45.2672 25.6811,45.2672 L25.6811,45.2672 L23.6411,45.2672 C23.6101,45.6272 23.5651,45.9832 23.5031,46.3372 L23.5031,46.3372 L26.7841,46.3372 C27.3371,46.3372 27.7841,46.7842 27.7841,47.3372 C27.7841,47.8892 27.3371,48.3372 26.7841,48.3372 L26.7841,48.3372 L22.9581,48.3372 C22.7051,49.0222 22.4121,49.6932 22.0331,50.3222 C21.7471,50.7962 21.1331,50.9482 20.6601,50.6642 C20.1871,50.3802 20.0341,49.7652 20.3181,49.2922 C21.2281,47.7802 21.7081,46.0442 21.7081,44.2702 C21.7081,38.8862 17.3281,34.5062 11.9441,34.5062 C6.5611,34.5062 2.1811,38.8862 2.1811,44.2702 C2.1811,49.6532 6.5611,54.0332 11.9441,54.0332 C13.7181,54.0332 15.4551,53.5532 16.9681,52.6442 C17.4411,52.3602 18.0561,52.5142 18.3401,52.9862 C18.6241,53.4602 18.4711,54.0742 17.9971,54.3592 C16.1741,55.4542 14.0811,56.0332 11.9441,56.0332 C5.4581,56.0332 0.1811,50.7562 0.1811,44.2702 C0.1811,38.7732 3.9761,34.1582 9.0791,32.8742 L9.0791,32.8742 L9.0791,32.4752 C8.3471,32.1542 7.8331,31.4242 7.8331,30.5752 L7.8331,30.5752 L7.8331,30.2992 C7.8331,29.1542 8.7641,28.2232 9.9081,28.2232 L9.9081,28.2232 Z M11.9435,50.6053 C12.4965,50.6053 12.9435,51.0533 12.9435,51.6053 L12.9435,51.6053 L12.9435,52.5323 C12.9435,53.0843 12.4965,53.5323 11.9435,53.5323 C11.3905,53.5323 10.9435,53.0843 10.9435,52.5323 L10.9435,52.5323 L10.9435,51.6053 C10.9435,51.0533 11.3905,50.6053 11.9435,50.6053 Z M19.629,50.8763 C20.181,50.8763 20.629,51.3243 20.629,51.8763 C20.629,52.4283 20.181,52.8763 19.629,52.8763 C19.076,52.8763 18.629,52.4283 18.629,51.8763 C18.629,51.3243 19.076,50.8763 19.629,50.8763 Z M30.0294,46.3368 C30.5824,46.3368 31.0294,46.7848 31.0294,47.3368 C31.0294,47.8888 30.5824,48.3368 30.0294,48.3368 L30.0294,48.3368 L28.9134,48.3368 C28.3604,48.3368 27.9134,47.8888 27.9134,47.3368 C27.9134,46.7848 28.3604,46.3368 28.9134,46.3368 L28.9134,46.3368 Z M20.2072,43.2728 C20.7602,43.2728 21.2072,43.7208 21.2072,44.2728 C21.2072,44.8248 20.7602,45.2728 20.2072,45.2728 L20.2072,45.2728 L19.2802,45.2728 C18.7282,45.2728 18.2802,44.8248 18.2802,44.2728 C18.2802,43.7208 18.7282,43.2728 19.2802,43.2728 L19.2802,43.2728 Z M4.6098,43.2669 C5.1618,43.2669 5.6098,43.7149 5.6098,44.2669 C5.6098,44.8189 5.1618,45.2669 4.6098,45.2669 L4.6098,45.2669 L3.6818,45.2669 C3.1288,45.2669 2.6818,44.8189 2.6818,44.2669 C2.6818,43.7149 3.1288,43.2669 3.6818,43.2669 L3.6818,43.2669 Z M11.9484,35.0072 C12.5014,35.0072 12.9484,35.4552 12.9484,36.0072 L12.9484,36.0072 L12.9484,36.9342 C12.9484,37.4862 12.5014,37.9342 11.9484,37.9342 C11.3954,37.9342 10.9484,37.4862 10.9484,36.9342 L10.9484,36.9342 L10.9484,36.0072 C10.9484,35.4552 11.3954,35.0072 11.9484,35.0072 Z M28.0884,0.1364 C30.3844,0.1364 32.2534,2.0054 32.2534,4.3014 C32.2534,4.6404 32.2014,4.9654 32.1244,5.2814 L32.1244,5.2814 L44.8174,11.9114 C44.8504,11.9284 44.8704,11.9584 44.9004,11.9784 L44.9004,11.9784 L46.2094,11.9784 C47.7014,11.9784 48.9164,13.1904 48.9164,14.6814 L48.9164,14.6814 L48.9164,33.4134 C48.9164,34.9034 47.7014,36.1154 46.2094,36.1154 L46.2094,36.1154 L22.5154,36.1154 C21.9634,36.1154 21.5154,35.6674 21.5154,35.1154 C21.5154,34.5634 21.9634,34.1154 22.5154,34.1154 L22.5154,34.1154 L46.2094,34.1154 C46.5914,34.1154 46.9164,33.7934 46.9164,33.4134 L46.9164,33.4134 L46.9164,14.6814 C46.9164,14.3004 46.5914,13.9784 46.2094,13.9784 L46.2094,13.9784 L9.4964,13.9784 C9.1064,13.9784 8.7894,14.2934 8.7894,14.6814 L8.7894,14.6814 L8.7894,26.6944 C8.7894,27.2464 8.3414,27.6944 7.7894,27.6944 C7.2364,27.6944 6.7894,27.2464 6.7894,26.6944 L6.7894,26.6944 L6.7894,14.6814 C6.7894,13.1904 8.0044,11.9784 9.4964,11.9784 L9.4964,11.9784 L10.8004,11.9784 C10.8344,11.9564 10.8564,11.9244 10.8924,11.9064 L10.8924,11.9064 L24.0374,5.2354 C23.9674,4.9344 23.9234,4.6244 23.9234,4.3014 C23.9234,2.0054 25.7914,0.1364 28.0884,0.1364 Z M13.9781,30.2232 L9.9081,30.2232 C9.8671,30.2232 9.8331,30.2572 9.8331,30.2992 L9.8331,30.2992 L9.8331,30.5752 C9.8331,30.6162 9.8671,30.6512 9.9081,30.6512 L9.9081,30.6512 L13.9781,30.6512 C14.0191,30.6512 14.0531,30.6162 14.0531,30.5752 L14.0531,30.5752 L14.0531,30.2992 C14.0531,30.2572 14.0191,30.2232 13.9781,30.2232 L13.9781,30.2232 Z M24.9534,7.0134 L15.1694,11.9784 L40.6264,11.9784 L31.1924,7.0514 C30.4284,7.9124 29.3274,8.4664 28.0884,8.4664 C26.8324,8.4664 25.7164,7.8954 24.9534,7.0134 L24.9534,7.0134 Z M28.0884,2.1364 C26.8944,2.1364 25.9234,3.1074 25.9234,4.3014 C25.9234,5.4954 26.8944,6.4664 28.0884,6.4664 C29.2814,6.4664 30.2534,5.4954 30.2534,4.3014 C30.2534,3.1074 29.2814,2.1364 28.0884,2.1364 Z" id="Blue" fill="#04246A"></path>
        </g>
    </g>
</svg>