<svg width="52" height="46" xmlns="http://www.w3.org/2000/svg"><g fill="#FFF" fill-rule="evenodd"><path d="M42.452 28.934v13.122h8.918v3.135H38.992V28.934h3.46zm-19.16 0l7.386 9.174c.418.488 1.208 1.51 1.58 2.16h.046c-.07-.604-.093-1.672-.093-2.16v-9.174h3.344v16.257h-3.46l-7.385-9.173c-.395-.488-1.208-1.51-1.556-2.16h-.047c.047.604.07 1.672.07 2.16v9.173h-3.344V28.934h3.46zm-11.657 0l6.688 16.257h-3.948l-1.068-2.74H4.9l-1.068 2.74H0l6.688-16.257h4.947zM9.103 31.49l-3.018 7.85h6.038l-3.02-7.85zM12.302 0l13.384 22.432L39.069 0z"/></g></svg>
